<svg width="96" height="96" viewBox="0 0 96 96" fill="none" xmlns="http://www.w3.org/2000/svg">
  <rect x="8" y="8" width="80" height="80" rx="22" fill="#0B1220"/>
  <path d="M27 31C27 28.7909 28.7909 27 31 27H65C67.2091 27 69 28.7909 69 31V65C69 67.2091 67.2091 69 65 69H31C28.7909 69 27 67.2091 27 65V31Z" fill="#101827" stroke="#26364F" stroke-width="2"/>
  <path d="M36 38H57C60.3137 38 63 40.6863 63 44C63 47.3137 60.3137 50 57 50H36V38Z" fill="#22C55E"/>
  <path d="M36 50H58C61.3137 50 64 52.6863 64 56C64 59.3137 61.3137 62 58 62H36V50Z" fill="#38BDF8"/>
  <path d="M36 38V62" stroke="#E7F0FF" stroke-width="4" stroke-linecap="round"/>
</svg>
